<svg xmlns="http://www.w3.org/2000/svg" xmlns:xlink="http://www.w3.org/1999/xlink" id="Main_Art" data-name="Main Art" viewBox="0 0 126.78 126.78"><defs><linearGradient id="linear-gradient" x1="14.09" y1="14.14" x2="112.66" y2="112.71" gradientUnits="userSpaceOnUse"><stop offset="0" stop-color="#ff962d"/><stop offset="1" stop-color="#fc7638"/></linearGradient></defs><title>app-icon-groups</title><path d="M63.37,1.81c-49.28,0-61.6,12.33-61.6,61.61S14.09,125,63.37,125,125,112.71,125,63.42,112.66,1.81,63.37,1.81Z"/><path d="M86.65,71.25V55A11.55,11.55,0,1,0,71.54,39.84H55.23A11.55,11.55,0,1,0,40.1,55V71.25A11.55,11.55,0,1,0,55.23,86.39H71.52A11.55,11.55,0,1,0,86.65,71.25Zm-9,0a11.55,11.55,0,0,0-6.13,6.14H55.23a11.55,11.55,0,0,0-6.13-6.14V55a11.56,11.56,0,0,0,6.13-6.13H71.54A11.64,11.64,0,0,0,77.65,55Z" style="fill:#fff;"/></svg>