<svg xmlns="http://www.w3.org/2000/svg" xmlns:xlink="http://www.w3.org/1999/xlink" id="Main_Art" data-name="Main Art" viewBox="0 0 127.32 127.32"><defs><linearGradient id="linear-gradient" x1="14.43" y1="14.71" x2="113" y2="113.29" gradientUnits="userSpaceOnUse"><stop offset="0" stop-color="#43b39c"/><stop offset="1" stop-color="#46948d"/></linearGradient></defs><title>app-icon-registrations</title><path d="M63.72,2.39C14.43,2.39,2.11,14.71,2.11,64s12.32,61.61,61.61,61.61,61.6-12.32,61.6-61.61S113,2.39,63.72,2.39Z"/><path d="M28.48,70.07a3.11,3.11,0,0,0,0,4.39l4.3,4.3a1.34,1.34,0,0,0,1.66.16A9.12,9.12,0,0,1,47,91.43a1.34,1.34,0,0,0,.16,1.66l4.31,4.31a3.1,3.1,0,0,0,4.4,0L68.07,85.15a1,1,0,0,0,0-1.39L42.13,57.81a1,1,0,0,0-1.4,0ZM96.57,52.26l-4.34-4.33a1.32,1.32,0,0,0-1.64-.16A9.13,9.13,0,0,1,78.1,35.28a1.35,1.35,0,0,0-.16-1.65l-4.32-4.31a3.09,3.09,0,0,0-4.39,0L47.13,51.45a1,1,0,0,0,0,1.39L73.07,78.78a1,1,0,0,0,1.39,0L96.57,56.65A3.11,3.11,0,0,0,96.57,52.26Z" style="fill:#fff;"/></svg>