<svg xmlns="http://www.w3.org/2000/svg" xmlns:xlink="http://www.w3.org/1999/xlink" id="Main_Art" data-name="Main Art" viewBox="0 0 126.52 126.52"><defs><linearGradient id="linear-gradient" x1="13.98" y1="13.99" x2="112.55" y2="112.56" gradientUnits="userSpaceOnUse"><stop offset="0" stop-color="#6bb23d"/><stop offset="1" stop-color="#659630"/></linearGradient></defs><title>app-icon-services</title><path d="M63.26,1.67C14,1.67,1.65,14,1.65,63.27S14,124.88,63.26,124.88s61.61-12.32,61.61-61.61S112.55,1.67,63.26,1.67Z"/><circle cx="35.24" cy="42.14" r="6.53" style="fill:#fff;"/><circle cx="35.24" cy="63.38" r="6.53" style="fill:#fff;"/><circle cx="35.24" cy="84.63" r="6.53" style="fill:#fff;"/><path d="M94.22,45.05a3,3,0,0,1-3,3H51.86a3,3,0,0,1-3-3V39.23a3,3,0,0,1,3-3H91.22a3,3,0,0,1,3,3Z" style="fill:#fff;"/><rect x="48.87" y="57.48" width="45.35" height="11.81" rx="2.99" style="fill:#fff;"/><rect x="48.87" y="78.72" width="45.35" height="11.81" rx="2.99" style="fill:#fff;"/></svg>