<svg xmlns="http://www.w3.org/2000/svg" xmlns:xlink="http://www.w3.org/1999/xlink" id="Main_Art" data-name="Main Art" viewBox="0 0 125 125"><defs><linearGradient id="linear-gradient" x1="12.68" y1="12.74" x2="111.25" y2="111.31" gradientUnits="userSpaceOnUse"><stop offset="0" stop-color="#f5c426"/><stop offset="1" stop-color="#f2b327"/></linearGradient></defs><title>app-icon-giving</title><path d="M62,.42C12.68.42.36,12.74.36,62S12.68,123.63,62,123.63s61.6-12.32,61.6-61.61S111.25.42,62,.42Z"/><path d="M64.33,85.55a3.12,3.12,0,0,1-3.66,0c-7.79-5.49-37-27.79-20.21-42.24,5.75-5,14.52-4.1,19.88,1.26l2.16,2.17,2.16-2.17c5.36-5.36,14.13-6.21,19.88-1.26C101.33,57.76,72.12,80.06,64.33,85.55Z" style="fill:#fff;"/></svg>