<?xml version="1.0" encoding="utf-8"?>
<!-- Generator: Adobe Illustrator 24.0.3, SVG Export Plug-In . SVG Version: 6.00 Build 0)  -->
<svg version="1.1" id="Layer_1" xmlns="http://www.w3.org/2000/svg" xmlns:xlink="http://www.w3.org/1999/xlink" x="0px" y="0px"
	 viewBox="0 0 123.2 123.2" style="enable-background:new 0 0 123.2 123.2;" xml:space="preserve">
<g>
	<g>
		<linearGradient id="SVGID_1_" gradientUnits="userSpaceOnUse" x1="12.3216" y1="12.3217" x2="110.8934" y2="110.8935">
			<stop  offset="0" style="stop-color:#43B39C"/>
			<stop  offset="1" style="stop-color:#46948D"/>
		</linearGradient>
		<path style="fill:url(#SVGID_1_);" d="M61.6,0C12.3,0,0,12.3,0,61.6c0,49.3,12.3,61.6,61.6,61.6s61.6-12.3,61.6-61.6
			C123.2,12.3,110.9,0,61.6,0z"/>
	</g>
	<g>
		<path style="fill:#FFFFFF;" d="M26.4,67.7c-1.2,1.2-1.2,3.2,0,4.4l4.3,4.3c0.4,0.4,1.1,0.5,1.7,0.2c3.5-2.1,8.1-1.6,11.1,1.4
			c3,3,3.5,7.6,1.4,11.1c-0.3,0.5-0.3,1.2,0.2,1.7l4.3,4.3c1.2,1.2,3.2,1.2,4.4,0L66,82.8c0.4-0.4,0.4-1,0-1.4L40,55.4
			c-0.4-0.4-1-0.4-1.4,0L26.4,67.7z M94.5,49.9l-4.3-4.3c-0.4-0.4-1.1-0.5-1.6-0.2c-3.5,2-8.1,1.6-11.1-1.4c-3-3-3.5-7.6-1.4-11.1
			c0.3-0.5,0.3-1.2-0.2-1.6l-4.3-4.3c-1.2-1.2-3.2-1.2-4.4,0L45,49.1c-0.4,0.4-0.4,1,0,1.4L71,76.4c0.4,0.4,1,0.4,1.4,0l22.1-22.1
			C95.7,53,95.7,51.1,94.5,49.9z"/>
	</g>
</g>
</svg>
