<svg xmlns="http://www.w3.org/2000/svg" xmlns:xlink="http://www.w3.org/1999/xlink" version="1.1" id="Layer_1" x="0px" y="0px" viewBox="0 0 123.2 123.2" style="enable-background:new 0 0 123.2 123.2;" xml:space="preserve"><g><g><linearGradient id="SVGID_1_" gradientUnits="userSpaceOnUse" x1="12.3216" y1="12.3217" x2="110.8934" y2="110.8935"><stop offset="0"/><stop offset="1"/></linearGradient><path d="M61.6,0C12.3,0,0,12.3,0,61.6c0,49.3,12.3,61.6,61.6,61.6s61.6-12.3,61.6-61.6 C123.2,12.3,110.9,0,61.6,0z"/></g><path style="fill:#FFFFFF;" d="M87.4,50.5L57,80.9c-2.8,2.8-7.3,2.8-10.1,0L31.6,65.7c-2.8-2.8-2.8-7.3,0-10.1 c2.8-2.8,7.3-2.8,10.1,0l10.1,10.1l25.3-25.3c2.8-2.8,7.3-2.8,10.1,0C90.2,43.2,90.2,47.7,87.4,50.5z"/></g></svg>