<svg xmlns="http://www.w3.org/2000/svg" xmlns:xlink="http://www.w3.org/1999/xlink" version="1.1" id="Layer_1" x="0px" y="0px" viewBox="0 0 123.2 123.2" style="enable-background:new 0 0 123.2 123.2;" xml:space="preserve"><g><g><linearGradient id="SVGID_1_" gradientUnits="userSpaceOnUse" x1="12.3216" y1="12.3217" x2="110.8934" y2="110.8935"><stop offset="0"/><stop offset="0.9995"/></linearGradient><path d="M61.6,0C12.3,0,0,12.3,0,61.6c0,49.3,12.3,61.6,61.6,61.6s61.6-12.3,61.6-61.6 C123.2,12.3,110.9,0,61.6,0z"/></g><g><circle style="fill:#FFFFFF;" cx="33.6" cy="40.5" r="6.5"/><circle style="fill:#FFFFFF;" cx="33.6" cy="61.7" r="6.5"/><circle style="fill:#FFFFFF;" cx="33.6" cy="83" r="6.5"/><path style="fill:#FFFFFF;" d="M92.6,43.4c0,1.7-1.3,3-3,3H50.2c-1.7,0-3-1.3-3-3v-5.8c0-1.7,1.3-3,3-3h39.4c1.7,0,3,1.3,3,3V43.4 z"/><path style="fill:#FFFFFF;" d="M92.6,64.6c0,1.7-1.3,3-3,3H50.2c-1.7,0-3-1.3-3-3v-5.8c0-1.7,1.3-3,3-3h39.4c1.7,0,3,1.3,3,3V64.6 z"/><path style="fill:#FFFFFF;" d="M92.6,85.9c0,1.7-1.3,3-3,3H50.2c-1.7,0-3-1.3-3-3V80c0-1.7,1.3-3,3-3h39.4c1.7,0,3,1.3,3,3V85.9z"/></g></g></svg>