<svg xmlns="http://www.w3.org/2000/svg" xmlns:xlink="http://www.w3.org/1999/xlink" version="1.1" id="Layer_1" x="0px" y="0px" viewBox="0 0 123.2 123.2" style="enable-background:new 0 0 123.2 123.2;" xml:space="preserve"><g><g><linearGradient id="SVGID_1_" gradientUnits="userSpaceOnUse" x1="12.3216" y1="12.3217" x2="110.8934" y2="110.8935"><stop offset="0"/><stop offset="1"/></linearGradient><path d="M61.6,0C12.3,0,0,12.3,0,61.6c0,49.3,12.3,61.6,61.6,61.6s61.6-12.3,61.6-61.6 C123.2,12.3,110.9,0,61.6,0z"/></g><path style="fill:#FFFFFF;" d="M64,85.1c-1.1,0.8-2.6,0.8-3.7,0c-7.8-5.5-37-27.8-20.2-42.2c5.8-5,14.5-4.1,19.9,1.3l2.2,2.2 l2.2-2.2c5.4-5.4,14.1-6.2,19.9-1.3C101,57.3,71.8,79.6,64,85.1z"/></g></svg>