<svg xmlns="http://www.w3.org/2000/svg" xmlns:xlink="http://www.w3.org/1999/xlink" version="1.1" id="Layer_1" x="0px" y="0px" viewBox="0 0 123.2 123.2" style="enable-background:new 0 0 123.2 123.2;" xml:space="preserve"><g><g><linearGradient id="SVGID_1_" gradientUnits="userSpaceOnUse" x1="12.3216" y1="12.3217" x2="110.8934" y2="110.8935"><stop offset="0"/><stop offset="1"/></linearGradient><path d="M61.6,0C12.3,0,0,12.3,0,61.6c0,49.3,12.3,61.6,61.6,61.6s61.6-12.3,61.6-61.6 C123.2,12.3,110.9,0,61.6,0z"/></g><path style="fill:#FFFFFF;" d="M84.9,69.4V53.2C89,51.4,92,47.3,92,42.5C92,36.1,86.8,31,80.4,31c-4.8,0-8.9,2.9-10.6,7H53.5 c-1.8-4.1-5.9-7-10.6-7c-6.4,0-11.5,5.2-11.5,11.5c0,4.8,2.9,8.9,7,10.6v16.3c-4.1,1.8-7,5.9-7,10.6c0,6.4,5.2,11.5,11.5,11.5 c4.8,0,8.9-2.9,10.6-7h16.3c1.8,4.1,5.9,7,10.6,7c6.4,0,11.5-5.2,11.5-11.5C91.9,75.3,89,71.2,84.9,69.4z M75.9,69.4 c-2.8,1.2-5,3.4-6.1,6.1H53.5c-1.2-2.8-3.4-5-6.1-6.1V53.2c2.8-1.2,5-3.4,6.1-6.1h16.3c1.2,2.7,3.4,5,6.1,6.1V69.4z"/></g></svg>