<?xml version="1.0" encoding="utf-8"?>
<!-- Generator: Adobe Illustrator 24.0.3, SVG Export Plug-In . SVG Version: 6.00 Build 0)  -->
<svg version="1.1" id="Layer_1" xmlns="http://www.w3.org/2000/svg" xmlns:xlink="http://www.w3.org/1999/xlink" x="0px" y="0px"
	 viewBox="0 0 123.2 123.2" style="enable-background:new 0 0 123.2 123.2;" xml:space="preserve">
<g>
	<g>
		<linearGradient id="SVGID_1_" gradientUnits="userSpaceOnUse" x1="12.3216" y1="12.3217" x2="110.8934" y2="110.8935">
			<stop  offset="0" style="stop-color:#F25437"/>
			<stop  offset="1" style="stop-color:#CD4E39"/>
		</linearGradient>
		<path style="fill:url(#SVGID_1_);" d="M61.6,0C12.3,0,0,12.3,0,61.6c0,49.3,12.3,61.6,61.6,61.6s61.6-12.3,61.6-61.6
			C123.2,12.3,110.9,0,61.6,0z"/>
	</g>
	<path style="fill:#FFFFFF;" d="M88.6,38.6H83v-4.3c0-1.9-1.5-3.4-3.4-3.4H78c-1.9,0-3.4,1.5-3.4,3.4v4.3H51.1v-4.3
		c0-1.9-1.5-3.4-3.4-3.4H46c-1.9,0-3.4,1.5-3.4,3.4v4.3H37c-2,0-3.6,1.6-3.6,3.6v43.7c0,2,1.6,3.6,3.6,3.6h51.6c2,0,3.6-1.6,3.6-3.6
		V42.2C92.2,40.2,90.6,38.6,88.6,38.6z M83,80H42.6V54.5H83V80z"/>
</g>
</svg>
